<?xml version="1.0" encoding="utf-8"?>
<!-- Generator: Adobe Illustrator 22.0.0, SVG Export Plug-In . SVG Version: 6.00 Build 0)  -->
<svg version="1.1" xmlns="http://www.w3.org/2000/svg" xmlns:xlink="http://www.w3.org/1999/xlink" x="0px" y="0px"
	 viewBox="0 0 203 203" style="enable-background:new 0 0 203 203;" xml:space="preserve">
<style type="text/css">
	.st0{enable-background:new    ;}
</style>
<g id="Sfondo_xA0_Immagine_1_">
	<path d="M118.9,140c9.4,11.3,22,17.6,35.3,23c1.9,0.8,3.9,1.3,5.7,2.5c-8.8,0.1-16.8-3-24.2-7.3c-7.9-4.5-15.4-9.7-23-14.6
		c-1.5-1-3.1-1.8-4.6-2.7c-0.9-1.2-1.7-2.4-2.7-3.5c-8.6-9.4-17.3-18.7-25.8-28.2c-2.5-2.8-4.7-6-7.9-10.2
		c-0.5,18.1-0.9,34.7-1.3,51.1c8.9-3,18.7-6.3,28.5-9.7c3.2-1.1,6.1-1.3,8.8,0.9c-0.8,0.8-1.4,2.3-2.3,2.4
		c-21,3.4-40.7,10.8-59.7,20.1c-0.9,0.4-1.8,0.7-2,1.5c4.8-5.2,10.5-9.8,14.2-15.7c3-4.7,4.8-10.8,5-16.3c0.7-19.5,0.5-39,0.8-58.5
		c0.2-10.5-3.4-18.7-12.6-24.4c-3.4-2.1-6.3-5.2-9.1-8.2c19.9,16.4,41.2,24.3,65.9,12.1c-0.9,4.1-6.3,7-15.9,7.5
		c-6.6,0.3-13.2,0.1-20.4,0.1c0,9.8-0.2,20.4,0.2,31c0.1,1.8,2.3,4,4.1,5.2c18,12.2,37.3,14.8,57.8,7.3c0.5-0.2,1-0.2,1.8-0.4
		c0.3,1.3,0.6,2.5,1.3,5.2c-8.1,0.7-15.8,2-23.4,1.8c-7.7-0.3-15.3-2.1-23.7-3.4c1.8,2.6,3.2,5.3,5.1,7.5
		c7.5,8.6,13.9,18.2,24.2,24.1L118.9,140z"/>
	<path d="M62.8,52.6C78.4,41.1,96.2,40,114.6,42.5c11.7,1.6,22.9,4.9,32,12.6c15.4,12.8,16.2,33.3,2.3,47.4c-1.8,1.8-4.1,3.2-6.4,5
		c-1.8-3.5-2.8-6-0.2-9.1c13-15.7,8-38.8-10.5-47.5C108.6,39.9,85.6,40.2,62.8,52.6z"/>
	<path d="M119.1,140.2c-0.6-1.1-1.2-2.2-1.9-3.6c11.2-2.5,21.8-1.4,33.1,4.9c-1.2-3.2-1.9-5.2-2.7-7.1c-8.7-20.1-14.1-40.9-12.2-63
		c0.3-4.2,1.8-8.4,2.8-12.6c0.5,0.1,1.1,0.1,1.6,0.2c0.2,0.8,0.9,1.8,0.6,2.4c-7.1,17.4-4.1,34.6,1.4,51.6
		c5.1,15.8,12.5,30.4,22,44.1c-11.7-8.5-25.1-12-39-14.3c-2-0.3-3.8-1.8-5.7-2.7C118.9,140,119.1,140.2,119.1,140.2z"/>
	<path d="M56.5,58.2C48.1,68.3,43,79.4,43.8,92.9c0.6,10.2,4.1,18.3,15.1,21.9c-4.3,2.5-7.7,1.4-10.9-1.1
		c-7.2-5.4-8.6-13.4-8.4-21.4C39.7,78.4,46,67.2,56.5,58.2z"/>
	<path d="M143.7,51.6c3.8-7.2,8.6-9.9,15-9.4C154.2,45,149.3,48.1,143.7,51.6z"/>
</g>
<g id="Ellisse_1_1_" class="st0">
	<g id="Ellisse_1">
		<g>
			<path d="M101.5,8.3c51.4,0,93.2,41.8,93.2,93.2s-41.8,93.2-93.2,93.2S8.3,152.9,8.3,101.5S50.1,8.3,101.5,8.3 M101.5,7
				C49.3,7,7,49.3,7,101.5S49.3,196,101.5,196s94.5-42.3,94.5-94.5S153.7,7,101.5,7L101.5,7z"/>
		</g>
	</g>
</g>
</svg>
