<?xml version="1.0" encoding="utf-8"?>
<!-- Generator: Adobe Illustrator 22.0.0, SVG Export Plug-In . SVG Version: 6.00 Build 0)  -->
<svg version="1.1" id="Objects" xmlns="http://www.w3.org/2000/svg" xmlns:xlink="http://www.w3.org/1999/xlink" x="0px" y="0px"
	 viewBox="0 0 500 106.7" style="enable-background:new 0 0 500 106.7;" xml:space="preserve">
<style type="text/css">
	.st0{fill:#D5E5F5;}
	.st1{fill:#9CBDDE;}
	.st2{fill:#FFFFFF;}
	.st3{fill:#9BBCDD;}
	.st4{fill:#809AB5;}
	.st5{fill:#6E8096;}
</style>
<g>
	<rect x="155" y="2.3" class="st0" width="27.4" height="83.4"/>
	<rect x="195.7" y="21.4" class="st0" width="19.9" height="64.4"/>
	<rect x="305" y="38.9" class="st0" width="19.9" height="46.9"/>
	<rect x="342.2" y="26.3" class="st0" width="26.1" height="59.4"/>
	<rect x="393.4" y="47.7" class="st0" width="26.1" height="46"/>
	<rect x="434" y="70.7" class="st0" width="62.8" height="23"/>
	<rect x="315.8" y="13.2" class="st0" width="19.9" height="80.5"/>
</g>
<g>
	<polygon class="st1" points="85.1,86.8 85.1,88.1 79.8,88.1 79.8,77.5 74.4,77.5 74.4,62.5 75,62.5 75,61 74.1,61 74.1,60.3 
		72.9,60.3 72.9,59.7 64.3,59.7 64.3,60.3 63,60.3 63,61 62,61 62,62.5 62.7,62.5 62.7,63.4 25,63.4 25,62.5 25.7,62.5 25.7,61 
		24.7,61 24.7,60.3 23.4,60.3 23.4,59.7 14.8,59.7 14.8,60.3 13.6,60.3 13.6,61 12.7,61 12.7,62.5 13.3,62.5 13.3,77.5 7.9,77.5 
		7.9,88.1 2.6,88.1 2.6,86.8 0,86.8 0,95.3 2.6,95.3 2.6,95.1 43.8,95.1 43.8,95.1 85.1,95.1 85.1,95.3 87.7,95.3 87.7,86.8 	"/>
	<g>
		<path class="st2" d="M16.8,65.3v12.4h-1.7V65.3c0-0.5,0.4-0.9,0.9-0.9C16.5,64.4,16.8,64.8,16.8,65.3z"/>
		<path class="st2" d="M19.9,65.3v12.4h-1.8V65.3c0-0.5,0.4-0.9,0.9-0.9S19.9,64.8,19.9,65.3z"/>
		<path class="st2" d="M23,65.3v12.4h-1.8V65.3c0-0.5,0.4-0.9,0.9-0.9S23,64.8,23,65.3z"/>
	</g>
	<g>
		<path class="st2" d="M66.3,65.5v12.4h-1.7V65.5c0-0.5,0.4-0.9,0.9-0.9S66.3,65,66.3,65.5z"/>
		<path class="st2" d="M69.4,65.5v12.4h-1.8V65.5c0-0.5,0.4-0.9,0.9-0.9C69,64.7,69.4,65,69.4,65.5z"/>
		<path class="st2" d="M72.5,65.5v12.4h-1.8V65.5c0-0.5,0.4-0.9,0.9-0.9C72.1,64.7,72.5,65,72.5,65.5z"/>
	</g>
</g>
<g>
	<polygon class="st3" points="474.2,105.3 474.1,105.1 474,103.1 473.1,103.2 471.7,58.4 469.6,58.5 469.5,58.4 467.4,58.4 
		468.1,103.3 467.1,103.3 467.1,105.2 467.1,105.4 470.5,105.4 470.5,105.5 	"/>
	<polygon class="st3" points="483.9,106.4 483.9,106.1 483.8,104.2 482.8,104.2 480.4,55.9 476.1,56 477.9,104.3 476.9,104.3 
		476.9,106.3 476.9,106.5 480.2,106.5 480.2,106.5 	"/>
	<polyline class="st3" points="495.5,106.7 495.4,104.9 494.4,104.9 491.2,52.1 486.9,52.1 489.4,105 488.5,105 488.4,106.7 	"/>
	<path class="st3" d="M468.2,58.7c0,0,0-0.1,0-0.3c0-0.8-0.1-3.2,0-3.4c0.1-0.3,0.6-0.6,0.6-0.6l0.7-2.9l-0.7-1.7l-0.4-2.5l16.9-6.7
		c0,0,2.1,1.6,2.2,2c0.1,0.5,0.6,1.7,0.6,2.1c-0.1,0.4-0.5,1.7-0.5,1.7s1.9,0.9,2.3,2.1c0.5,1.2,0.4,3.8,0.4,3.8l-20.9,7.4"/>
	<path class="st3" d="M404.7,94.3l0.5-12.4l-0.5-0.7l3.4-4.3l10.6,0.7v-1l-0.5-0.7l7.7-2.8l2.2,0.9l1.1-0.2v-4.4l-0.5-0.4l0.5-0.6
		c0,0,0.4-4.9,4.9-6.3l-0.4-1l0.8-1.1v-0.6l-0.5-0.6c0,0,0.4-1,1.2-1c0,0-0.1-1.2,0.3-1.3c0,0-0.3-0.8,0.3-0.9c0,0,0.6,0.2,0.4,0.8
		c0,0,0.1,0.2,0.1,0.7c0,0.4,0,0.8,0,0.8l0.6,0.2c0,0,0.4,0.2,0.5,0.8l-0.2,0.3v1l0.5,1l-0.4,0.9c0,0,4.2,1.7,4.7,7.1l0.4,0.1
		l-0.3,0.9v3.4l3.3,1.2l0.7-1.3l2.3,0.1l0.6,0.8h1l0.5,0.5l2.3,0.2l-0.5,1V82l4,0.2l7.3,0.7V97L404.7,94.3z"/>
</g>
<g>
	<rect x="155.9" y="64.7" class="st4" width="70.9" height="27.4"/>
	<path class="st4" d="M228.4,65.3c0,3.1-16.5,5.5-36.8,5.5s-36.8-2.5-36.8-5.5c0-3.1,16.5-5.5,36.8-5.5
		C211.9,59.8,228.4,62.3,228.4,65.3z"/>
	<path class="st4" d="M228.4,71.4c0,3.1-16.5,5.5-36.8,5.5s-36.8-2.5-36.8-5.5c0-3.1,16.5-5.5,36.8-5.5S228.4,68.4,228.4,71.4z"/>
	<rect x="154.8" y="65.3" class="st4" width="73.6" height="6.1"/>
	<path class="st4" d="M204.1,58c-0.1-1.1,0-6.2,0-6.2h-1.9v-3.1h-10.6h-1.2h-10.6v3.1h-1.9c0,0,0.1,5.1,0,6.2
		c-0.1,1.1-1.5,1.4-1.5,1.4v2.5l14.1,1.3v0.1l0.6-0.1l0.6,0.1v-0.1l14.1-1.3v-2.5C205.6,59.4,204.2,59.1,204.1,58z"/>
	<rect x="190" y="46.6" class="st4" width="1.6" height="3.1"/>
	<path class="st4" d="M190.5,45.7L190.5,45.7h-0.2c0,0,0.2-0.2,0.2-0.3c0-0.2-0.1-0.4-0.2-0.5c-0.1-0.1-0.4-0.1-0.4-0.2
		c0-0.1-0.1-0.2,0-0.3s0.1-0.2,0.1-0.2c0-0.1-0.4-0.2-0.5-0.5s-0.7-0.8-0.8-0.8c-0.1-0.1,1,0.1,1.1,0.4c0.2,0.3,0.5,0.6,0.6,0.5
		c0-0.1-0.1-0.5,0.3-0.7c0.3-0.2,0.4,0.3,0.4,0.5s1.1,0.1,1.3,0.5c0.2,0.3-1.1,0.1-1.2,0.5c-0.1,0.4,0,0.4-0.1,0.7s-0.1,0.6,0,0.7
		c0.1,0.1,0.2,0.1,0.1,0.2c-0.1,0.1-0.3,0.2-0.1,0.3c0.2,0.2,0.5,0.2,0.3,0.4c-0.1,0.2-1.1,0.3-1.4,0.2c-0.2-0.1-0.1-0.5,0.1-0.8
		C190.5,45.9,190.6,45.6,190.5,45.7"/>
</g>
<g>
	<rect x="335.6" y="63.3" class="st5" width="72.5" height="35.5"/>
	<g>
		<g>
			<polygon class="st5" points="345.5,56.3 345.5,49.8 344.2,49.8 344.2,48 372,48 372,63.3 333.5,63.3 332.3,62.1 			"/>
			<rect x="335.6" y="63.3" class="st4" width="36.4" height="5.4"/>
			<rect x="335.6" y="68.7" class="st4" width="3.2" height="30.1"/>
			<rect x="345.5" y="68.7" class="st4" width="3.2" height="30.1"/>
			<rect x="355.3" y="68.7" class="st4" width="3.2" height="30.1"/>
			<rect x="365.2" y="68.7" class="st4" width="3.2" height="30.1"/>
		</g>
		<g>
			<polygon class="st5" points="398.2,56.3 398.2,49.8 399.5,49.8 399.5,48 371.6,48 371.6,63.3 410.1,63.3 411.3,62.1 			"/>
			<rect x="371.6" y="63.3" class="st4" width="36.4" height="5.4"/>
			<rect x="404.9" y="68.7" class="st4" width="3.2" height="30.1"/>
			<rect x="395" y="68.7" class="st4" width="3.2" height="30.1"/>
			<rect x="385.2" y="68.7" class="st4" width="3.2" height="30.1"/>
			<rect x="375.3" y="68.7" class="st4" width="3.2" height="30.1"/>
		</g>
		<path class="st5" d="M395.8,51.1c0,6.7-10.6,12.2-23.6,12.2s-23.6-5.5-23.6-12.2s10.6-12.2,23.6-12.2
			C385.3,38.9,395.8,44.4,395.8,51.1z"/>
	</g>
	<polygon class="st4" points="335.6,62.2 371.6,47.7 406.5,62.2 	"/>
</g>
<g>
	<path class="st4" d="M316.1,81.5v-7.8h0.5v-1.4h-0.5v-1l1.1-1.1h-1.1v-6.7h-12.2v-1.2l0.4-0.4l-0.4-1.2l-0.7,1.2l0.2,0.2v1.2h-2.5
		v-4.9h0.4v-0.5h-1.1c0,0,0.7-3.4-3-5.5v-0.9h0.4v-0.7h-0.8c0,0-0.1-0.8-0.8-0.8c0,0-0.6,0-0.9,0.8h-0.7v0.6h0.6v0.9
		c0,0-2.5,0.7-3.2,2.7v-5.7h0.3v-0.6H290v-1.3h-0.5v-1.7h0.9v-0.3l-0.9-0.9c0,0,0.1-9.6-8.6-13.9v-1l-1.4-0.5v-3.3h0.3v-0.5H279
		l-0.5-2.9h-1.1l-1.2-2.1H276h-0.3l-1.2,2.1h-1.1l-0.5,2.9h-0.8v0.5h0.3v3.3l-1.4,0.5v1c-8.7,4.3-8.6,13.9-8.6,13.9l-0.9,0.9v0.3
		h0.9v1.7H262v1.3h-2.3v0.6h0.3V55c-0.6-2-3.2-2.7-3.2-2.7v-0.9h0.6v-0.6H257c-0.2-0.8-0.9-0.8-0.9-0.8c-0.7,0-0.8,0.8-0.8,0.8h-0.8
		v0.7h0.4v0.9c-3.7,2.1-3,5.5-3,5.5h-1.1v0.5h0.4v4.9h-2.5v-1.2l0.2-0.2l-0.7-1.2l-0.4,1.2l0.4,0.4v1.2H236v6.7h-1.1l1.1,1.1v1h-0.5
		v1.4h0.5v7.8h-6.4v10.3H276h46.6V81.5H316.1z"/>
	<polygon class="st4" points="276.9,17 276.3,17 276.3,15.9 275.8,15.9 275.8,17 275.2,17 275.2,17.5 275.8,17.5 275.8,21.4 
		276.3,21.4 276.3,17.5 276.9,17.5 	"/>
	<polygon class="st5" points="277.1,65.9 276.9,65.9 276.9,65.4 276.7,65.4 276.7,65.9 276.4,65.9 276.4,66.1 276.7,66.1 
		276.7,67.6 276.9,67.6 276.9,66.1 277.1,66.1 	"/>
	<polygon class="st4" points="256.5,48.4 256.2,48.4 256.2,47.9 255.9,47.9 255.9,48.4 255.6,48.4 255.6,48.7 255.9,48.7 
		255.9,50.6 256.2,50.6 256.2,48.7 256.5,48.7 	"/>
	<polygon class="st4" points="296.4,48.4 296.1,48.4 296.1,47.9 295.8,47.9 295.8,48.4 295.5,48.4 295.5,48.7 295.8,48.7 
		295.8,50.6 296.1,50.6 296.1,48.7 296.4,48.7 	"/>
	<polygon class="st5" points="278.2,88.7 277.8,88.7 277.2,69.2 276.7,69.2 276.2,69.2 275.7,88.7 275.3,88.7 274.9,95.7 
		276.7,95.7 278.6,95.7 	"/>
	<polygon class="st5" points="276.7,69.3 276.4,68.1 276.8,67.2 277.1,68.1 	"/>
</g>
<path class="st5" d="M325.7,71.5l-1.2,1.2v21.7h-4.2c0-0.2,0-0.4,0-0.5v-8.3c0-1.7-1.4-3.1-3.1-3.1h-0.1c-1.7,0-3.1,1.4-3.1,3.1v8.3
	c0,0.2,0,0.4,0,0.5h-4v-0.1V80.8c0-2.7-2.2-5-5-5l0,0c-2.7,0-5,2.2-5,5v13.4v0.1h-4.2c0-0.2,0-0.4,0-0.5v-8.3c0-1.7-1.4-3.1-3.1-3.1
	h-0.1c-1.7,0-3.1,1.4-3.1,3.1v8.3c0,0.2,0,0.4,0,0.5h-4.2V72.7l-1.2-1.2l0.2-0.4l0.9-0.1v-0.5v-1.4l0.4-0.3l0.1-5.6h-0.3l-0.4-0.9
	l19.5-0.1l0,0h0.2h0.2l0,0l19.5,0.1l-0.4,0.9l0,0l0.1,5.6l0.4,0.3v1.4V71l0.9,0.1L325.7,71.5z"/>
<rect x="160.5" y="87.1" class="st5" width="18" height="8.6"/>
<g>
	<g>
		<path class="st5" d="M84.2,83.7c-1.6,0-2.5,0-4.1,0c0.2-10,0.3-20,0.5-30c1.2,0,1.9,0,3.1,0C83.8,63.7,84,73.7,84.2,83.7z"/>
	</g>
	<path class="st5" d="M84.3,53.6c0,0.1-0.1,0.2-0.2,0.2h-3.8c-0.1,0-0.2-0.1-0.2-0.2l0,0c0-0.1,0.1-0.2,0.2-0.2H84
		C84.1,53.4,84.3,53.5,84.3,53.6L84.3,53.6z"/>
	<path class="st5" d="M84.5,53.3c0,0.2-0.1,0.3-0.3,0.3H80c-0.1,0-0.3-0.1-0.3-0.3l0,0c0-0.2,0.1-0.3,0.3-0.3h4.3
		C84.4,53,84.5,53.1,84.5,53.3L84.5,53.3z"/>
	<path class="st5" d="M84.5,85.2c0,0.5-0.3,0.8-0.7,0.8h-3.4c-0.4,0-0.7-0.4-0.7-0.8V84c0-0.5,0.3-0.8,0.7-0.8h3.4
		c0.4,0,0.7,0.4,0.7,0.8V85.2z"/>
	<rect x="79.2" y="84.1" class="st5" width="5.7" height="2.1"/>
	<rect x="78.8" y="84.8" class="st5" width="6.6" height="2"/>
</g>
<g>
	<rect x="21.7" y="48.8" class="st5" width="57.9" height="4.1"/>
	<g>
		<g>
			<path class="st5" d="M28.3,83.7c-1.6,0-2.5,0-4.1,0c0.2-10,0.3-20,0.5-30c1.2,0,1.9,0,3.1,0C28,63.7,28.2,73.7,28.3,83.7z"/>
		</g>
		<path class="st5" d="M28.4,53.6c0,0.1-0.1,0.2-0.2,0.2h-3.8c-0.1,0-0.2-0.1-0.2-0.2l0,0c0-0.1,0.1-0.2,0.2-0.2h3.8
			C28.3,53.4,28.4,53.5,28.4,53.6L28.4,53.6z"/>
		<path class="st5" d="M28.7,53.3c0,0.2-0.1,0.3-0.3,0.3h-4.3c-0.1,0-0.3-0.1-0.3-0.3l0,0c0-0.2,0.1-0.3,0.3-0.3h4.3
			C28.6,53,28.7,53.1,28.7,53.3L28.7,53.3z"/>
		<path class="st5" d="M28.7,85.2c0,0.5-0.3,0.8-0.7,0.8h-3.4c-0.4,0-0.7-0.4-0.7-0.8V84c0-0.5,0.3-0.8,0.7-0.8H28
			c0.4,0,0.7,0.4,0.7,0.8V85.2z"/>
		<rect x="23.4" y="84.1" class="st5" width="5.7" height="2.1"/>
		<rect x="23" y="84.8" class="st5" width="6.6" height="2"/>
	</g>
	<g>
		<g>
			<path class="st5" d="M39.5,83.7c-1.6,0-2.5,0-4.1,0c0.2-10,0.3-20,0.5-30c1.2,0,1.9,0,3.1,0C39.2,63.7,39.3,73.7,39.5,83.7z"/>
		</g>
		<path class="st5" d="M39.6,53.6c0,0.1-0.1,0.2-0.2,0.2h-3.8c-0.1,0-0.2-0.1-0.2-0.2l0,0c0-0.1,0.1-0.2,0.2-0.2h3.8
			C39.5,53.4,39.6,53.5,39.6,53.6L39.6,53.6z"/>
		<path class="st5" d="M39.9,53.3c0,0.2-0.1,0.3-0.3,0.3h-4.3c-0.1,0-0.3-0.1-0.3-0.3l0,0c0-0.2,0.1-0.3,0.3-0.3h4.3
			C39.8,53,39.9,53.1,39.9,53.3L39.9,53.3z"/>
		<path class="st5" d="M39.9,85.2c0,0.5-0.3,0.8-0.7,0.8h-3.4c-0.4,0-0.7-0.4-0.7-0.8V84c0-0.5,0.3-0.8,0.7-0.8h3.4
			c0.4,0,0.7,0.4,0.7,0.8V85.2z"/>
		<rect x="34.6" y="84.1" class="st5" width="5.7" height="2.1"/>
		<rect x="34.1" y="84.8" class="st5" width="6.6" height="2"/>
	</g>
	<g>
		<g>
			<path class="st5" d="M50.7,83.7c-1.6,0-2.5,0-4.1,0c0.2-10,0.3-20,0.5-30c1.2,0,1.9,0,3.1,0C50.3,63.7,50.5,73.7,50.7,83.7z"/>
		</g>
		<path class="st5" d="M50.8,53.6c0,0.1-0.1,0.2-0.2,0.2h-3.8c-0.1,0-0.2-0.1-0.2-0.2l0,0c0-0.1,0.1-0.2,0.2-0.2h3.8
			C50.6,53.4,50.8,53.5,50.8,53.6L50.8,53.6z"/>
		<path class="st5" d="M51,53.3c0,0.2-0.1,0.3-0.3,0.3h-4.3c-0.1,0-0.3-0.1-0.3-0.3l0,0c0-0.2,0.1-0.3,0.3-0.3h4.3
			C50.9,53,51,53.1,51,53.3L51,53.3z"/>
		<path class="st5" d="M51,85.2c0,0.5-0.3,0.8-0.7,0.8h-3.4c-0.4,0-0.7-0.4-0.7-0.8V84c0-0.5,0.3-0.8,0.7-0.8h3.4
			c0.4,0,0.7,0.4,0.7,0.8V85.2z"/>
		<rect x="45.7" y="84.1" class="st5" width="5.7" height="2.1"/>
		<rect x="45.3" y="84.8" class="st5" width="6.6" height="2"/>
	</g>
	<g>
		<g>
			<path class="st5" d="M61.8,83.7c-1.6,0-2.5,0-4.1,0c0.2-10,0.3-20,0.5-30c1.2,0,1.9,0,3.1,0C61.5,63.7,61.7,73.7,61.8,83.7z"/>
		</g>
		<path class="st5" d="M61.9,53.6c0,0.1-0.1,0.2-0.2,0.2h-3.8c-0.1,0-0.2-0.1-0.2-0.2l0,0c0-0.1,0.1-0.2,0.2-0.2h3.8
			C61.8,53.4,61.9,53.5,61.9,53.6L61.9,53.6z"/>
		<path class="st5" d="M62.2,53.3c0,0.2-0.1,0.3-0.3,0.3h-4.3c-0.1,0-0.3-0.1-0.3-0.3l0,0c0-0.2,0.1-0.3,0.3-0.3h4.3
			C62.1,53,62.2,53.1,62.2,53.3L62.2,53.3z"/>
		<path class="st5" d="M62.2,85.2c0,0.5-0.3,0.8-0.7,0.8h-3.4c-0.4,0-0.7-0.4-0.7-0.8V84c0-0.5,0.3-0.8,0.7-0.8h3.4
			c0.4,0,0.7,0.4,0.7,0.8V85.2z"/>
		<rect x="56.9" y="84.1" class="st5" width="5.7" height="2.1"/>
		<rect x="56.5" y="84.8" class="st5" width="6.6" height="2"/>
	</g>
	<g>
		<g>
			<path class="st5" d="M73,83.7c-1.6,0-2.5,0-4.1,0c0.2-10,0.3-20,0.5-30c1.2,0,1.9,0,3.1,0C72.7,63.7,72.8,73.7,73,83.7z"/>
		</g>
		<path class="st5" d="M73.1,53.6c0,0.1-0.1,0.2-0.2,0.2H69c-0.1,0-0.2-0.1-0.2-0.2l0,0c0-0.1,0.1-0.2,0.2-0.2h3.8
			C73,53.4,73.1,53.5,73.1,53.6L73.1,53.6z"/>
		<path class="st5" d="M73.4,53.3c0,0.2-0.1,0.3-0.3,0.3h-4.3c-0.1,0-0.3-0.1-0.3-0.3l0,0c0-0.2,0.1-0.3,0.3-0.3h4.3
			C73.3,53,73.4,53.1,73.4,53.3L73.4,53.3z"/>
		<path class="st5" d="M73.4,85.2c0,0.5-0.3,0.8-0.7,0.8h-3.4c-0.4,0-0.7-0.4-0.7-0.8V84c0-0.5,0.3-0.8,0.7-0.8h3.4
			c0.4,0,0.7,0.4,0.7,0.8V85.2z"/>
		<rect x="68.1" y="84.1" class="st5" width="5.7" height="2.1"/>
		<rect x="67.6" y="84.8" class="st5" width="6.6" height="2"/>
	</g>
	<rect x="21.3" y="52.7" class="st5" width="58.8" height="0.8"/>
	<path class="st5" d="M31.6,49.3c0,0,6.9-1.1,8.8-2.9c2.3,0,3.3,0,3.3,0l0.5-1.9h4.1v-1h0.8v-0.9h3.3v0.9H54l1.3,2.5h3.2l2.4,4.1
		L31.6,49.3z"/>
	<g>
		<path class="st5" d="M79.8,47.8c0-0.1-0.2-0.3-0.3-0.2c-0.1,0.1-0.1,0.3-0.1,0.4c0-0.1-0.1-0.1-0.2-0.1s-0.1,0-0.1,0.1
			s0,0.2-0.1,0.3c-0.1,0-0.1-0.1-0.2-0.1c0,0-0.2,0-0.2,0.1s0,0.1,0,0.1c0,0.3-0.1,0.4-0.4,0.4l0.3,0.3c0.2,0.1,0.6,0,0.7-0.2
			c0.2-0.1,0.3-0.4,0.4-0.6C79.8,48.3,79.9,48,79.8,47.8z"/>
		<path class="st5" d="M21.3,47.8c0-0.1,0.2-0.3,0.3-0.2c0.1,0.1,0.1,0.3,0.1,0.4c0-0.1,0.1-0.1,0.2-0.1s0.1,0,0.1,0.1
			s0,0.2,0.1,0.3c0.1,0,0.1-0.1,0.2-0.1c0,0,0.2,0,0.2,0.1s0,0.1,0,0.1c0,0.3,0.1,0.4,0.4,0.4l-0.3,0.3c-0.2,0.1-0.6,0-0.7-0.2
			c-0.2-0.1-0.3-0.4-0.4-0.6C21.3,48.3,21.3,48,21.3,47.8z"/>
	</g>
	<rect x="22.1" y="86.2" class="st5" width="57.2" height="9.9"/>
</g>
<g>
	<path class="st5" d="M192.6,95.6h-120c0,0,4.3-36.9,4.4-38.3c0.2-1.4,1.8-3.9,1.8-3.9s0.3-1.4,0-2s0.7-3.5,0.7-3.5v-1.7l0.1-1.2
		l0.3-0.6c0,0,1.1,0.3,1.1,0.1c0.1-0.1,0.2-1.2,0.2-1.2l1-0.9l0.3-2.1c0-0.1-0.3-0.1-0.3-0.1l-0.9-1C92.9,23.4,116.2,20,116.2,20
		l1.6,1.6v1l1,0.8l4.4,11.2h2.2l1.3,1.3v6.3h-0.5l2.9,9h6.6l1,1v1.6l0.4,0.4v1.3h5.4V53h4.6v2.7h1.3v-3.1
		c29.5-1.9,39.4,11.2,39.4,11.2L192.6,95.6z"/>
	<path class="st1" d="M121.8,46.6v5.3c-1.9,0-3.8,0.1-5.6,0.2v-5.5c0-1.5,1.3-2.8,2.8-2.8c0.8,0,1.5,0.3,2,0.8
		C121.4,45.1,121.8,45.8,121.8,46.6z"/>
	<path class="st1" d="M132.1,64.3V71c-2.2-0.1-4.5-0.1-6.8-0.1v-6.6c0-1.9,1.5-3.4,3.4-3.4c0.9,0,1.8,0.4,2.4,1
		C131.7,62.5,132.1,63.4,132.1,64.3z"/>
	<path class="st1" d="M132.4,85.6V95c0,0.2,0,0.4,0,0.6h-8.2c0-0.2,0-0.4,0-0.6v-9.4c0-2.5,1.9-4.6,4.2-4.6c1.1,0,2.2,0.5,2.9,1.3
		C131.9,83.2,132.4,84.3,132.4,85.6z"/>
	<path class="st1" d="M144.9,85.6V95c0,0.2,0,0.4,0,0.6h-8.2c0-0.2,0-0.4,0-0.6v-9.4c0-2.5,1.9-4.6,4.2-4.6c1.1,0,2.2,0.5,2.9,1.3
		C144.4,83.2,144.9,84.3,144.9,85.6z"/>
	<path class="st1" d="M165.5,94.6c0,0.4,0,0.7-0.1,1h-7.2c-0.1-0.2-0.1-0.5-0.1-0.7l-0.4-8.4c-0.1-2.3,1.5-4.2,3.5-4.2h0.1
		c2,0,3.6,1.7,3.7,3.9L165.5,94.6z"/>
	<path class="st1" d="M121,63.8v7c0,0.1,0,0.2,0,0.2c-2.2,0.1-4.5,0.2-6.8,0.3c0-0.2-0.1-0.4-0.1-0.6v-7c0-1.9,1.5-3.4,3.4-3.4
		c0.9,0,1.8,0.4,2.4,1C120.6,62,121,62.9,121,63.8z"/>
	<path class="st1" d="M120.3,85.6V95c0,0.2,0,0.4,0,0.6H112c0-0.2,0-0.4,0-0.6v-9.4c0-2.5,1.9-4.6,4.2-4.6c1.1,0,2.2,0.5,2.9,1.3
		C119.8,83.2,120.3,84.3,120.3,85.6z"/>
	<path class="st1" d="M109.2,85.4c0,0.2,0,0.4,0,0.6l-0.9,9.3c0,0.1,0,0.2,0,0.4h-6.7c0-0.1,0-0.3,0-0.4c0-0.2,0-0.4,0-0.6l0.9-9.3
		c0.2-2.5,1.9-4.4,3.8-4.3C107.9,81.2,109.2,83.1,109.2,85.4z"/>
	<path class="st1" d="M99.7,85.8c0,0.2,0,0.3,0,0.5l-0.8,8.4c0,0.3-0.1,0.6-0.1,0.8h-5.9c0-0.3-0.1-0.6-0.1-0.9c0-0.2,0-0.3,0-0.5
		l0.8-8.4c0.2-2.3,1.7-4,3.4-3.8C98.6,82.1,99.7,83.8,99.7,85.8z"/>
	<path class="st1" d="M91,86.1c0,0.2,0,0.4,0,0.6l-0.8,8.2c0,0.2-0.1,0.5-0.1,0.7h-4.9c0-0.2,0-0.4,0-0.6s0-0.4,0-0.6l0.8-8.2
		c0.2-2.2,1.5-3.9,2.9-3.8C90.1,82.6,91,84.2,91,86.1z"/>
	<path class="st1" d="M84.9,86c0,0.3,0,0.5,0,0.8l-0.8,7.7c0,0.4-0.1,0.8-0.2,1.2h-3.1c0-0.2,0-0.4,0-0.6c0-0.3,0-0.5,0-0.8l0.8-7.7
		c0.2-2.1,1.1-3.7,2-3.6C84.3,83,84.9,84.3,84.9,86z"/>
	<path class="st1" d="M80.5,86c0,0.3,0,0.5,0,0.8L80,94.5c0,0.4-0.1,0.8-0.1,1.2h-2.2c0-0.2,0-0.4,0-0.6c0-0.3,0-0.5,0-0.8l0.5-7.7
		c0.1-2.1,0.8-3.7,1.4-3.6C80.1,83,80.5,84.3,80.5,86z"/>
	<path class="st1" d="M112.4,47.4l-0.1,5.1c-1.9,0.2-3.8,0.4-5.6,0.7l0.2-5.9c0-1.6,1.3-2.9,2.9-2.9c0.8,0,1.5,0.4,2,0.9
		C112.1,45.9,112.4,46.6,112.4,47.4z"/>
	<path class="st1" d="M110,64.4L110,64.4l-0.1,6.4c0,0.3-0.1,0.6-0.2,0.9c-1.8,0.1-3.7,0.3-5.5,0.5c0,0,0,0,0-0.1V72l0.1-7.7
		c0.1-1.6,1.4-2.8,2.9-2.7C108.8,61.7,110,62.9,110,64.4z"/>
	<path class="st1" d="M103.8,48.1l-0.5,5.8c-1.7,0.4-3.3,0.8-4.8,1.3l0.4-6.5c0.1-1.4,1.2-2.6,2.5-2.8c0.1,0,0.2,0,0.3,0
		C102.9,45.8,103.8,46.7,103.8,48.1z"/>
	<path class="st1" d="M100.8,65.1l-0.5,6.3c0,0.4,0,0.8-0.1,1.2c-1.6,0.2-3.2,0.4-4.7,0.6l0.5-7.5c0.1-1.3,1.2-2.4,2.5-2.6
		c0.1,0,0.2,0,0.3,0C99.9,63.1,100.8,63.9,100.8,65.1z"/>
	<path class="st1" d="M96.8,50l-0.6,5.9c-1.6,0.5-3.1,1-4.5,1.5l0.8-6.9c0.2-1.1,1.2-2.1,2.2-2.3c0.1,0,0.2,0,0.3,0
		C96,48.2,96.8,48.9,96.8,50z"/>
	<path class="st1" d="M93.7,66.2l-0.6,6.2c0,0.4,0,0.8-0.1,1.1c-1.5,0.2-3,0.4-4.4,0.6V74l0.9-7.3c0.2-1.1,1.2-2.1,2.2-2.3
		c0.1,0,0.2,0,0.3,0C92.9,64.4,93.7,65.1,93.7,66.2z"/>
	<path class="st1" d="M90.8,51.8L90,57.9c-1.3,0.5-2.5,0.9-3.6,1.4l0.8-7.1c0.1-0.9,1-1.7,1.9-1.9c0.1,0,0.2,0,0.3,0
		C90.1,50.4,90.8,51,90.8,51.8z"/>
	<path class="st1" d="M87.6,67.2l-0.9,7.1v0.1c-1.3,0.2-2.4,0.4-3.5,0.5l0.8-7.3c0.1-1,1-1.8,1.9-1.9c0.1,0,0.2,0,0.2,0
		C86.9,65.7,87.6,66.3,87.6,67.2z"/>
	<path class="st1" d="M85.7,54.4l-0.5,5.5c-0.8,0.4-1.6,0.7-2.3,1.1l0.5-6.2c0.1-0.8,0.6-1.5,1.2-1.6c0.1,0,0.1,0,0.2,0
		C85.3,53.1,85.7,53.6,85.7,54.4z"/>
	<path class="st1" d="M82.6,68.8L82,75.1c-0.8,0.1-1.6,0.3-2.2,0.4l0.5-6.3c0.1-0.9,0.6-1.6,1.2-1.7c0.1,0,0.1,0,0.2,0
		C82.2,67.4,82.6,68,82.6,68.8z"/>
	<path class="st1" d="M82.4,56.4l-0.5,5c-0.7,0.4-1.3,0.7-1.9,1l0.4-5.7c0.1-0.8,0.5-1.4,1-1.5h0.1C82,55.2,82.4,55.7,82.4,56.4z"/>
	<path class="st1" d="M79.5,58.8l-0.4,4.1c-0.8,0.5-1.5,0.9-1.9,1.1l0.4-4.8c0.1-0.8,0.5-1.4,1-1.5h0.1
		C79.2,57.6,79.5,58.1,79.5,58.8z"/>
	<path class="st1" d="M79,70.5l-0.5,5.2c-0.8,0.1-1.4,0.2-1.8,0.3l0.4-5.2c0.1-0.8,0.5-1.4,1-1.5h0.1C78.7,69.3,79,69.8,79,70.5z"/>
	<path class="st1" d="M142.9,70.9l-2.2,0.2l-2.2-6.7c0,0,1.1-1.3,2.5-0.7c1.4,0.6,1.8,1.3,2,3C143.1,68.3,142.9,70.9,142.9,70.9z"/>
	<path class="st1" d="M153.7,71.9h-5.5v-1.2h-1.7l-0.1-4.4c0,0,0.2-3.4,3.9-3.2c3.6,0.2,3.7,4,3.7,4L153.7,71.9z"/>
	<path class="st1" d="M155.3,93.7l-0.3-7.9c0,0-0.3-3.8-3.9-3.8h-0.8l-0.6,0.9L155.3,93.7z"/>
	<rect x="160.9" y="55" class="st1" width="1.8" height="3.3"/>
	<polygon class="st1" points="173.7,60.4 172.4,59.9 172.4,57 173.7,57.5 	"/>
	<polygon class="st1" points="182.1,64.6 180.7,63.8 180.7,59.9 182.1,60.7 	"/>
	<path class="st1" d="M167.2,66.4l-0.2-2.9c0,0,0-1.5,1.6-1.5c1.6,0.1,2,2.2,2,2.2v2.6L167.2,66.4z"/>
	<path class="st1" d="M161.3,74l-0.1-4.4c0,0-0.3-2.6,2.2-2.6c2.4,0,2.1,3.2,2.1,3.2V74H161.3z"/>
	<path class="st1" d="M171.7,77.2c-2-0.1-3.3-0.1-3.3-0.1l-0.8-7.7c0,0-0.1-1.8,1.7-1.5s1.9,2.5,1.9,2.5L171.7,77.2z"/>
	<path class="st1" d="M177.2,77.5c-1.2-0.1-2.3-0.2-3.4-0.3l-0.7-7.3c0,0-0.1-1.8,1.7-1.5s1.9,2.5,1.9,2.5L177.2,77.5z"/>
	<path class="st1" d="M180.8,78c-0.8-0.1-1.7-0.2-2.5-0.3l-0.6-7.1c0,0-0.1-1.7,1.2-1.4c1.3,0.2,1.4,2.3,1.4,2.3L180.8,78z"/>
	<path class="st1" d="M184.1,78.5c-0.7-0.1-1.4-0.3-2.1-0.4l-0.5-6.8c0,0-0.1-1.7,1-1.4c1.1,0.2,1.2,2.3,1.2,2.3L184.1,78.5z"/>
	<path class="st1" d="M187.2,79.2c-0.5-0.1-1.1-0.3-1.7-0.4l-0.7-6c0,0-0.2-1.7,0.7-1.5s1,2.3,1,2.3L187.2,79.2z"/>
	<path class="st1" d="M189.1,79.8c-0.4-0.1-0.7-0.2-1.1-0.4l-0.6-6.3c0,0-0.1-1.7,0.5-1.5s0.7,2.3,0.7,2.3L189.1,79.8z"/>
	<path class="st1" d="M173.8,92.6c-1.4,0-2.6-0.1-3.3-0.1l-0.8-7.7c0,0-0.1-1.8,1.7-1.5c1.8,0.2,1.9,2.5,1.9,2.5L173.8,92.6z"/>
	<path class="st1" d="M179.2,92.7c-1.2,0-2.3-0.1-3.4-0.1l0,0l-0.7-7.2c0,0-0.1-1.8,1.7-1.5s1.9,2.5,1.9,2.5L179.2,92.7z"/>
	<path class="st1" d="M182.9,92.8c-0.8,0-1.7,0-2.5-0.1l-0.5-7c0,0-0.1-1.8,1.2-1.5c1.3,0.2,1.4,2.4,1.4,2.4L182.9,92.8z"/>
	<path class="st1" d="M186.1,92.9c-0.7,0-1.4,0-2.1-0.1l-0.5-6.9c0,0-0.1-1.7,1-1.4c1.1,0.2,1.2,2.3,1.2,2.3L186.1,92.9z"/>
	<path class="st1" d="M189.1,93c-0.5,0-1,0-1.6-0.1l-0.8-6.6c0,0-0.2-1.7,0.7-1.5s1,2.3,1,2.3L189.1,93z"/>
	<path class="st1" d="M190.9,93.1c-0.3,0-0.7,0-1.1-0.1l-0.6-6.2c0,0-0.1-1.7,0.5-1.5s0.8,2.3,0.8,2.3L190.9,93.1z"/>
	<polygon class="st1" points="104.4,34.4 102.3,35.3 102.3,32.1 104.4,31.3 	"/>
	<polygon class="st1" points="91.7,39.9 90.1,40.8 90.1,37.7 91.7,36.8 	"/>
	<polygon class="st1" points="84.7,44.6 83.5,45.3 83.5,42.9 84.7,42.2 	"/>
</g>
<rect y="91.6" class="st5" width="500" height="15.1"/>
</svg>
